<mxfile host="app.diagrams.net" agent="Mozilla/5.0 (Windows NT 10.0; Win64; x64) AppleWebKit/537.36 (KHTML, like Gecko) Chrome/126.0.0.0 Safari/537.36" version="24.7.17">
  <diagram name="Page-1" id="MsW0RVKY1YysIexItUbb">
    <mxGraphModel dx="954" dy="1692" grid="1" gridSize="10" guides="1" tooltips="1" connect="1" arrows="1" fold="1" page="1" pageScale="1" pageWidth="850" pageHeight="1100" math="0" shadow="0">
      <root>
        <mxCell id="0" />
        <mxCell id="1" parent="0" />
        <mxCell id="eP8OmpLiCaDxalwIHvSg-1" value="OBAT" style="rounded=0;whiteSpace=wrap;html=1;" parent="1" vertex="1">
          <mxGeometry x="160" y="80" width="120" height="60" as="geometry" />
        </mxCell>
        <mxCell id="eP8OmpLiCaDxalwIHvSg-2" value="JENIS JENIS OBAT" style="rounded=0;whiteSpace=wrap;html=1;" parent="1" vertex="1">
          <mxGeometry x="610" y="80" width="120" height="60" as="geometry" />
        </mxCell>
        <mxCell id="eP8OmpLiCaDxalwIHvSg-4" value="" style="endArrow=none;html=1;rounded=0;exitX=1;exitY=0.5;exitDx=0;exitDy=0;entryX=0;entryY=0.5;entryDx=0;entryDy=0;" parent="1" source="eP8OmpLiCaDxalwIHvSg-5" target="eP8OmpLiCaDxalwIHvSg-2" edge="1">
          <mxGeometry width="50" height="50" relative="1" as="geometry">
            <mxPoint x="400" y="330" as="sourcePoint" />
            <mxPoint x="450" y="280" as="targetPoint" />
          </mxGeometry>
        </mxCell>
        <mxCell id="eP8OmpLiCaDxalwIHvSg-6" value="" style="endArrow=none;html=1;rounded=0;exitX=1;exitY=0.5;exitDx=0;exitDy=0;entryX=0;entryY=0.5;entryDx=0;entryDy=0;" parent="1" source="eP8OmpLiCaDxalwIHvSg-1" target="eP8OmpLiCaDxalwIHvSg-5" edge="1">
          <mxGeometry width="50" height="50" relative="1" as="geometry">
            <mxPoint x="240" y="110" as="sourcePoint" />
            <mxPoint x="610" y="110" as="targetPoint" />
          </mxGeometry>
        </mxCell>
        <mxCell id="eP8OmpLiCaDxalwIHvSg-5" value="" style="rhombus;whiteSpace=wrap;html=1;" parent="1" vertex="1">
          <mxGeometry x="425" y="90" width="40" height="40" as="geometry" />
        </mxCell>
        <mxCell id="eP8OmpLiCaDxalwIHvSg-7" value="KAPSUL" style="ellipse;whiteSpace=wrap;html=1;" parent="1" vertex="1">
          <mxGeometry x="740" y="-10" width="90" height="50" as="geometry" />
        </mxCell>
        <mxCell id="eP8OmpLiCaDxalwIHvSg-8" value="&amp;nbsp;CAIR" style="ellipse;whiteSpace=wrap;html=1;" parent="1" vertex="1">
          <mxGeometry x="601" y="200" width="90" height="50" as="geometry" />
        </mxCell>
        <mxCell id="eP8OmpLiCaDxalwIHvSg-9" value="&amp;nbsp;GAS" style="ellipse;whiteSpace=wrap;html=1;" parent="1" vertex="1">
          <mxGeometry x="710" y="190" width="90" height="50" as="geometry" />
        </mxCell>
        <mxCell id="eP8OmpLiCaDxalwIHvSg-10" value="BUBUK" style="ellipse;whiteSpace=wrap;html=1;" parent="1" vertex="1">
          <mxGeometry x="625" y="-30" width="90" height="50" as="geometry" />
        </mxCell>
        <mxCell id="eP8OmpLiCaDxalwIHvSg-11" value="SUHU PENYIMPANAN" style="ellipse;whiteSpace=wrap;html=1;" parent="1" vertex="1">
          <mxGeometry x="50" y="170" width="90" height="50" as="geometry" />
        </mxCell>
        <mxCell id="eP8OmpLiCaDxalwIHvSg-12" value="DOSIS" style="ellipse;whiteSpace=wrap;html=1;" parent="1" vertex="1">
          <mxGeometry x="280" width="90" height="50" as="geometry" />
        </mxCell>
        <mxCell id="eP8OmpLiCaDxalwIHvSg-13" value="HARGA" style="ellipse;whiteSpace=wrap;html=1;" parent="1" vertex="1">
          <mxGeometry x="50" y="10" width="90" height="50" as="geometry" />
        </mxCell>
        <mxCell id="eP8OmpLiCaDxalwIHvSg-14" value="KOMPOSISI" style="ellipse;whiteSpace=wrap;html=1;" parent="1" vertex="1">
          <mxGeometry x="270" y="180" width="90" height="50" as="geometry" />
        </mxCell>
        <mxCell id="eP8OmpLiCaDxalwIHvSg-15" value="KADALUARSA" style="ellipse;whiteSpace=wrap;html=1;" parent="1" vertex="1">
          <mxGeometry x="170" y="230" width="90" height="50" as="geometry" />
        </mxCell>
        <mxCell id="eP8OmpLiCaDxalwIHvSg-16" value="MEREK" style="ellipse;whiteSpace=wrap;html=1;" parent="1" vertex="1">
          <mxGeometry x="170" y="-50" width="90" height="50" as="geometry" />
        </mxCell>
        <mxCell id="eP8OmpLiCaDxalwIHvSg-18" value="" style="endArrow=none;html=1;rounded=0;entryX=0.276;entryY=0.932;entryDx=0;entryDy=0;entryPerimeter=0;" parent="1" target="eP8OmpLiCaDxalwIHvSg-12" edge="1">
          <mxGeometry width="50" height="50" relative="1" as="geometry">
            <mxPoint x="220" y="80" as="sourcePoint" />
            <mxPoint x="270" y="30" as="targetPoint" />
          </mxGeometry>
        </mxCell>
        <mxCell id="eP8OmpLiCaDxalwIHvSg-19" value="" style="endArrow=none;html=1;rounded=0;entryX=0.5;entryY=1;entryDx=0;entryDy=0;exitX=0.442;exitY=0;exitDx=0;exitDy=0;exitPerimeter=0;" parent="1" source="eP8OmpLiCaDxalwIHvSg-1" target="eP8OmpLiCaDxalwIHvSg-16" edge="1">
          <mxGeometry width="50" height="50" relative="1" as="geometry">
            <mxPoint x="230" y="90" as="sourcePoint" />
            <mxPoint x="280" y="40" as="targetPoint" />
          </mxGeometry>
        </mxCell>
        <mxCell id="eP8OmpLiCaDxalwIHvSg-20" value="" style="endArrow=none;html=1;rounded=0;entryX=0.922;entryY=0.72;entryDx=0;entryDy=0;entryPerimeter=0;" parent="1" target="eP8OmpLiCaDxalwIHvSg-13" edge="1">
          <mxGeometry width="50" height="50" relative="1" as="geometry">
            <mxPoint x="200" y="80" as="sourcePoint" />
            <mxPoint x="225" y="10" as="targetPoint" />
          </mxGeometry>
        </mxCell>
        <mxCell id="eP8OmpLiCaDxalwIHvSg-21" value="" style="endArrow=none;html=1;rounded=0;exitX=0.5;exitY=0;exitDx=0;exitDy=0;" parent="1" source="eP8OmpLiCaDxalwIHvSg-15" edge="1">
          <mxGeometry width="50" height="50" relative="1" as="geometry">
            <mxPoint x="233" y="100" as="sourcePoint" />
            <mxPoint x="215" y="141" as="targetPoint" />
          </mxGeometry>
        </mxCell>
        <mxCell id="eP8OmpLiCaDxalwIHvSg-22" value="" style="endArrow=none;html=1;rounded=0;entryX=0.444;entryY=0;entryDx=0;entryDy=0;exitX=0.75;exitY=1;exitDx=0;exitDy=0;entryPerimeter=0;" parent="1" source="eP8OmpLiCaDxalwIHvSg-1" target="eP8OmpLiCaDxalwIHvSg-14" edge="1">
          <mxGeometry width="50" height="50" relative="1" as="geometry">
            <mxPoint x="243" y="110" as="sourcePoint" />
            <mxPoint x="245" y="30" as="targetPoint" />
          </mxGeometry>
        </mxCell>
        <mxCell id="eP8OmpLiCaDxalwIHvSg-23" value="" style="endArrow=none;html=1;rounded=0;exitX=1;exitY=0;exitDx=0;exitDy=0;" parent="1" source="eP8OmpLiCaDxalwIHvSg-11" edge="1">
          <mxGeometry width="50" height="50" relative="1" as="geometry">
            <mxPoint x="253" y="120" as="sourcePoint" />
            <mxPoint x="200" y="140" as="targetPoint" />
          </mxGeometry>
        </mxCell>
        <mxCell id="eP8OmpLiCaDxalwIHvSg-24" value="TABLET" style="ellipse;whiteSpace=wrap;html=1;" parent="1" vertex="1">
          <mxGeometry x="770" y="60" width="90" height="50" as="geometry" />
        </mxCell>
        <mxCell id="eP8OmpLiCaDxalwIHvSg-25" value="&amp;nbsp;TETES" style="ellipse;whiteSpace=wrap;html=1;" parent="1" vertex="1">
          <mxGeometry x="510" y="150" width="90" height="50" as="geometry" />
        </mxCell>
        <mxCell id="eP8OmpLiCaDxalwIHvSg-27" value="" style="endArrow=none;html=1;rounded=0;entryX=0.5;entryY=1;entryDx=0;entryDy=0;exitX=0.5;exitY=0;exitDx=0;exitDy=0;" parent="1" source="eP8OmpLiCaDxalwIHvSg-2" target="eP8OmpLiCaDxalwIHvSg-10" edge="1">
          <mxGeometry width="50" height="50" relative="1" as="geometry">
            <mxPoint x="520" y="160" as="sourcePoint" />
            <mxPoint x="570" y="110" as="targetPoint" />
          </mxGeometry>
        </mxCell>
        <mxCell id="eP8OmpLiCaDxalwIHvSg-28" value="" style="endArrow=none;html=1;rounded=0;entryX=0;entryY=1;entryDx=0;entryDy=0;" parent="1" target="eP8OmpLiCaDxalwIHvSg-7" edge="1">
          <mxGeometry width="50" height="50" relative="1" as="geometry">
            <mxPoint x="710" y="80" as="sourcePoint" />
            <mxPoint x="635" y="30" as="targetPoint" />
          </mxGeometry>
        </mxCell>
        <mxCell id="eP8OmpLiCaDxalwIHvSg-29" value="" style="endArrow=none;html=1;rounded=0;entryX=0;entryY=0.5;entryDx=0;entryDy=0;exitX=1;exitY=0.5;exitDx=0;exitDy=0;" parent="1" source="eP8OmpLiCaDxalwIHvSg-2" target="eP8OmpLiCaDxalwIHvSg-24" edge="1">
          <mxGeometry width="50" height="50" relative="1" as="geometry">
            <mxPoint x="690" y="90" as="sourcePoint" />
            <mxPoint x="723" y="23" as="targetPoint" />
          </mxGeometry>
        </mxCell>
        <mxCell id="eP8OmpLiCaDxalwIHvSg-30" value="" style="endArrow=none;html=1;rounded=0;entryX=0.344;entryY=1.006;entryDx=0;entryDy=0;entryPerimeter=0;" parent="1" source="eP8OmpLiCaDxalwIHvSg-25" target="eP8OmpLiCaDxalwIHvSg-2" edge="1">
          <mxGeometry width="50" height="50" relative="1" as="geometry">
            <mxPoint x="610" y="150" as="sourcePoint" />
            <mxPoint x="660" y="100" as="targetPoint" />
          </mxGeometry>
        </mxCell>
        <mxCell id="eP8OmpLiCaDxalwIHvSg-31" value="" style="endArrow=none;html=1;rounded=0;exitX=0.483;exitY=0;exitDx=0;exitDy=0;exitPerimeter=0;entryX=0.5;entryY=1;entryDx=0;entryDy=0;" parent="1" source="eP8OmpLiCaDxalwIHvSg-8" target="eP8OmpLiCaDxalwIHvSg-2" edge="1">
          <mxGeometry width="50" height="50" relative="1" as="geometry">
            <mxPoint x="610" y="150" as="sourcePoint" />
            <mxPoint x="660" y="100" as="targetPoint" />
          </mxGeometry>
        </mxCell>
        <mxCell id="eP8OmpLiCaDxalwIHvSg-32" value="" style="endArrow=none;html=1;rounded=0;entryX=0.333;entryY=0;entryDx=0;entryDy=0;entryPerimeter=0;exitX=0.667;exitY=1;exitDx=0;exitDy=0;exitPerimeter=0;" parent="1" source="eP8OmpLiCaDxalwIHvSg-2" target="eP8OmpLiCaDxalwIHvSg-9" edge="1">
          <mxGeometry width="50" height="50" relative="1" as="geometry">
            <mxPoint x="610" y="150" as="sourcePoint" />
            <mxPoint x="660" y="100" as="targetPoint" />
          </mxGeometry>
        </mxCell>
        <mxCell id="eP8OmpLiCaDxalwIHvSg-33" value="KODE OBAT" style="ellipse;whiteSpace=wrap;html=1;align=center;fontStyle=4;" parent="1" vertex="1">
          <mxGeometry y="90" width="100" height="40" as="geometry" />
        </mxCell>
        <mxCell id="eP8OmpLiCaDxalwIHvSg-34" value="" style="endArrow=none;html=1;rounded=0;exitX=1;exitY=0.5;exitDx=0;exitDy=0;entryX=0;entryY=0.5;entryDx=0;entryDy=0;" parent="1" source="eP8OmpLiCaDxalwIHvSg-33" target="eP8OmpLiCaDxalwIHvSg-1" edge="1">
          <mxGeometry width="50" height="50" relative="1" as="geometry">
            <mxPoint x="100" y="150" as="sourcePoint" />
            <mxPoint x="150" y="100" as="targetPoint" />
          </mxGeometry>
        </mxCell>
        <mxCell id="eP8OmpLiCaDxalwIHvSg-35" value="ID-JENIS-OBAT" style="ellipse;whiteSpace=wrap;html=1;align=center;fontStyle=4;" parent="1" vertex="1">
          <mxGeometry x="505" width="100" height="40" as="geometry" />
        </mxCell>
        <mxCell id="eP8OmpLiCaDxalwIHvSg-36" value="" style="endArrow=none;html=1;rounded=0;entryX=0.333;entryY=0;entryDx=0;entryDy=0;entryPerimeter=0;" parent="1" source="eP8OmpLiCaDxalwIHvSg-35" target="eP8OmpLiCaDxalwIHvSg-2" edge="1">
          <mxGeometry width="50" height="50" relative="1" as="geometry">
            <mxPoint x="420" y="240" as="sourcePoint" />
            <mxPoint x="470" y="190" as="targetPoint" />
          </mxGeometry>
        </mxCell>
        <mxCell id="eP8OmpLiCaDxalwIHvSg-37" value="MEMILIKI" style="text;html=1;align=center;verticalAlign=middle;resizable=0;points=[];autosize=1;strokeColor=none;fillColor=none;" parent="1" vertex="1">
          <mxGeometry x="409" y="60" width="80" height="30" as="geometry" />
        </mxCell>
        <mxCell id="eP8OmpLiCaDxalwIHvSg-38" value="DIMILIKI" style="text;html=1;align=center;verticalAlign=middle;resizable=0;points=[];autosize=1;strokeColor=none;fillColor=none;" parent="1" vertex="1">
          <mxGeometry x="414" y="140" width="70" height="30" as="geometry" />
        </mxCell>
        <mxCell id="eP8OmpLiCaDxalwIHvSg-39" value="attribute" style="swimlane;childLayout=stackLayout;horizontal=1;startSize=50;horizontalStack=0;rounded=1;fontSize=14;fontStyle=0;strokeWidth=2;resizeParent=0;resizeLast=1;shadow=0;dashed=0;align=center;arcSize=4;whiteSpace=wrap;html=1;" parent="1" vertex="1">
          <mxGeometry x="283" y="330" width="417" height="140" as="geometry" />
        </mxCell>
        <mxCell id="eP8OmpLiCaDxalwIHvSg-40" value="{MEREK, HARGA, DOSIS, SUHU PENYIMPANAN&lt;span style=&quot;background-color: initial;&quot;&gt;, KOMPOSISI,&lt;/span&gt;&lt;div&gt;&lt;span style=&quot;background-color: initial;&quot;&gt;&amp;nbsp;KADALUARSA,&amp;nbsp;&lt;/span&gt;&lt;b style=&quot;background-color: initial;&quot;&gt;KODE-OBAT}&lt;/b&gt;&lt;div&gt;&lt;div&gt;&lt;b style=&quot;background-color: initial;&quot;&gt;&lt;br&gt;&lt;/b&gt;&lt;/div&gt;&lt;div&gt;&lt;span style=&quot;background-color: initial;&quot;&gt;{BUBUK, KAPSUL, TABLET,&lt;/span&gt;&lt;span style=&quot;background-color: initial;&quot;&gt;&amp;nbsp;GAS, TETES, CAIR,&lt;/span&gt;&lt;/div&gt;&lt;div&gt;&lt;span style=&quot;background-color: initial;&quot;&gt;&lt;b&gt;ID-JENIS-BARANG, &lt;/b&gt;&lt;i&gt;KODE-OBAT&lt;/i&gt;&lt;/span&gt;&lt;b style=&quot;background-color: initial;&quot;&gt;}&lt;/b&gt;&lt;/div&gt;&lt;/div&gt;&lt;/div&gt;" style="align=left;strokeColor=none;fillColor=none;spacingLeft=4;fontSize=12;verticalAlign=top;resizable=0;rotatable=0;part=1;html=1;" parent="eP8OmpLiCaDxalwIHvSg-39" vertex="1">
          <mxGeometry y="50" width="417" height="90" as="geometry" />
        </mxCell>
        <mxCell id="eP8OmpLiCaDxalwIHvSg-41" value="Entity" style="swimlane;childLayout=stackLayout;horizontal=1;startSize=50;horizontalStack=0;rounded=1;fontSize=14;fontStyle=0;strokeWidth=2;resizeParent=0;resizeLast=1;shadow=0;dashed=0;align=center;arcSize=4;whiteSpace=wrap;html=1;" parent="1" vertex="1">
          <mxGeometry x="120" y="330" width="160" height="140" as="geometry" />
        </mxCell>
        <mxCell id="eP8OmpLiCaDxalwIHvSg-42" value="OBAT&lt;div&gt;&lt;br&gt;&lt;/div&gt;&lt;div&gt;&lt;br&gt;&lt;div&gt;JENIS JENIS OBAT&lt;/div&gt;&lt;/div&gt;" style="align=left;strokeColor=none;fillColor=none;spacingLeft=4;fontSize=12;verticalAlign=top;resizable=0;rotatable=0;part=1;html=1;" parent="eP8OmpLiCaDxalwIHvSg-41" vertex="1">
          <mxGeometry y="50" width="160" height="90" as="geometry" />
        </mxCell>
        <mxCell id="eP8OmpLiCaDxalwIHvSg-43" value="1" style="text;html=1;align=center;verticalAlign=middle;resizable=0;points=[];autosize=1;strokeColor=none;fillColor=none;" parent="1" vertex="1">
          <mxGeometry x="285" y="78" width="30" height="30" as="geometry" />
        </mxCell>
        <mxCell id="eP8OmpLiCaDxalwIHvSg-44" value="1" style="text;html=1;align=center;verticalAlign=middle;resizable=0;points=[];autosize=1;strokeColor=none;fillColor=none;" parent="1" vertex="1">
          <mxGeometry x="285" y="113" width="30" height="30" as="geometry" />
        </mxCell>
        <mxCell id="eP8OmpLiCaDxalwIHvSg-45" value="n" style="text;html=1;align=center;verticalAlign=middle;resizable=0;points=[];autosize=1;strokeColor=none;fillColor=none;" parent="1" vertex="1">
          <mxGeometry x="570" y="78" width="30" height="30" as="geometry" />
        </mxCell>
        <mxCell id="eP8OmpLiCaDxalwIHvSg-46" value="n" style="text;html=1;align=center;verticalAlign=middle;resizable=0;points=[];autosize=1;strokeColor=none;fillColor=none;" parent="1" vertex="1">
          <mxGeometry x="571" y="110" width="30" height="30" as="geometry" />
        </mxCell>
        <mxCell id="X1qgB26RInY-ki33i02b-2" value="&lt;span style=&quot;border-bottom: 1px dotted&quot;&gt;KODE-OBAT&lt;/span&gt;" style="ellipse;whiteSpace=wrap;html=1;align=center;" vertex="1" parent="1">
          <mxGeometry x="790" y="135" width="100" height="40" as="geometry" />
        </mxCell>
        <mxCell id="X1qgB26RInY-ki33i02b-3" value="" style="endArrow=none;html=1;rounded=0;entryX=0;entryY=0.5;entryDx=0;entryDy=0;exitX=1;exitY=0.75;exitDx=0;exitDy=0;" edge="1" parent="1" source="eP8OmpLiCaDxalwIHvSg-2" target="X1qgB26RInY-ki33i02b-2">
          <mxGeometry width="50" height="50" relative="1" as="geometry">
            <mxPoint x="700" y="150" as="sourcePoint" />
            <mxPoint x="750" y="200" as="targetPoint" />
          </mxGeometry>
        </mxCell>
      </root>
    </mxGraphModel>
  </diagram>
</mxfile>
